<svg xmlns="http://www.w3.org/2000/svg" viewBox="0 0 24 24"><path d="M22.28 9.28a5.88 5.88 0 0 0-.51-4.83 6 6 0 0 0-6.44-2.88 5.89 5.89 0 0 0-9.07.84 5.88 5.88 0 0 0-3.95 2.86 6 6 0 0 0 .74 7 5.88 5.88 0 0 0 .51 4.83 6 6 0 0 0 6.44 2.88 5.85 5.85 0 0 0 4.44 2 6 6 0 0 0 5.72-4.15 5.88 5.88 0 0 0 3.95-2.86 6 6 0 0 0-.83-6.69zm-9.1 12.19a4.5 4.5 0 0 1-2.86-1 .28.28 0 0 1 .06-.05l4.74-2.73a.75.75 0 0 0 .38-.65V9.59l2 1.16a.08.08 0 0 1 0 .06v5.52a4.51 4.51 0 0 1-4.32 4.14zm-9.28-4.14A4.5 4.5 0 0 1 3.33 13a4.39 4.39 0 0 1 .43-1.93.25.25 0 0 1 .07.05l4.74 2.73a.75.75 0 0 0 .75 0l5.78-3.33v2.31a.09.09 0 0 1 0 .07L10.33 16a4.5 4.5 0 0 1-6.43 1.28zm-1.23-10.5a4.49 4.49 0 0 1 2.35-2 .28.28 0 0 1 0 .08v5.47a.78.78 0 0 0 .38.65l5.77 3.33-2 1.15a.07.07 0 0 1-.07 0L4.35 12.6a4.5 4.5 0 0 1-.68-5.77zm16.5 3.86-5.78-3.34 2-1.15a.08.08 0 0 1 .07 0l4.71 2.72a4.5 4.5 0 0 1-.69 8.11.28.28 0 0 1 0-.07V9.25a.77.77 0 0 0-.31-.66zm2-3.29a.22.22 0 0 1-.07-.05L16.36 4.6a.75.75 0 0 0-.75 0L9.83 7.93V5.62a.07.07 0 0 1 0-.07L14.53 2.9a4.49 4.49 0 0 1 6.63 4.67zm-12.53 4.1L6.63 10.35a.07.07 0 0 1 0-.06V4.77a4.5 4.5 0 0 1 7.37-3.46.28.28 0 0 1-.06.05L9.2 4.09a.75.75 0 0 0-.38.65zm1.07-2.32 2.57-1.48 2.57 1.48v3l-2.57 1.48-2.57-1.48z"/></svg>
